<?xml version="1.0" encoding="utf-8"?>
<!-- Generator: Adobe Illustrator 26.0.1, SVG Export Plug-In . SVG Version: 6.00 Build 0)  -->
<svg version="1.1" id="Layer_1" xmlns="http://www.w3.org/2000/svg" xmlns:xlink="http://www.w3.org/1999/xlink" x="0px" y="0px"
	 width="754.292px" height="569.453px" viewBox="0 0 754.292 569.453" style="enable-background:new 0 0 754.292 569.453;"
	 xml:space="preserve">
<style type="text/css">
	.st0{fill:#FFFFFF;stroke:#231F20;stroke-miterlimit:10;}
	.st1{fill:none;stroke:#231F20;stroke-miterlimit:10;}
	.st2{fill:#1D1F4B;stroke:#FFFFFF;stroke-width:0.6943;stroke-miterlimit:10;}
	.st3{fill:#1D1F4B;}
	.st4{fill:#4777CF;}
</style>
<path class="st4" d="M549.565,569.453l41.208-4.167l38.405-11.947l34.773-18.898l30.311-25.019l25.019-30.311l18.898-34.773
	l11.947-38.405l4.167-41.208l-4.167-41.208l-11.947-38.405l-18.898-34.773l-25.019-30.311l-30.311-25.019l-34.773-18.898
	l-38.405-11.947L549.565,160H265.562v53h284.004l30.54,3.088l28.463,8.854l25.771,14.006l22.464,18.542l18.542,22.464l14.006,25.771
	l8.854,28.463l3.088,30.54l-3.088,30.54l-8.854,28.463l-14.006,25.771l-18.542,22.464l-22.464,18.542l-25.771,14.006l-28.463,8.854
	l-30.54,3.088H377.146l-187.203,53H549.565L549.565,569.453z"/>
</svg>
