<?xml version="1.0" encoding="utf-8"?>
<!-- Generator: Adobe Illustrator 26.0.1, SVG Export Plug-In . SVG Version: 6.00 Build 0)  -->
<svg version="1.1" id="Layer_1" xmlns="http://www.w3.org/2000/svg" xmlns:xlink="http://www.w3.org/1999/xlink" x="0px" y="0px"
	 width="754.292px" height="569.453px" viewBox="0 0 754.292 569.453" style="enable-background:new 0 0 754.292 569.453;"
	 xml:space="preserve">
<style type="text/css">
	.st0{fill:#FFFFFF;stroke:#231F20;stroke-miterlimit:10;}
	.st1{fill:none;stroke:#231F20;stroke-miterlimit:10;}
	.st2{fill:#1D1F4B;stroke:#FFFFFF;stroke-width:0.6943;stroke-miterlimit:10;}
	.st3{fill:#1D1F4B;}
	.st4{fill:#4777CF;}
</style>
<path class="st4" d="M488.73,409.453H204.726l-41.207-4.167l-38.405-11.947l-34.772-18.898l-30.311-25.019l-25.019-30.311
	l-18.898-34.773L4.167,245.934L0,204.727l4.167-41.208l11.947-38.405l18.898-34.773l25.019-30.311l30.311-25.019l34.772-18.898
	l38.405-11.947L204.726,0h359.622v53H204.726l-30.54,3.088l-28.462,8.854l-25.77,14.006L97.49,97.49l-18.542,22.464l-14.005,25.771
	l-8.854,28.463L53,204.727l3.088,30.54l8.854,28.463l14.005,25.771l18.542,22.464l22.464,18.542l25.77,14.006l28.462,8.854
	l30.54,3.088H488.73V409.453L488.73,409.453z"/>
</svg>
