<?xml version="1.0" encoding="utf-8"?>
<!-- Generator: Adobe Illustrator 26.0.1, SVG Export Plug-In . SVG Version: 6.00 Build 0)  -->
<svg version="1.1" id="Layer_1" xmlns="http://www.w3.org/2000/svg" xmlns:xlink="http://www.w3.org/1999/xlink" x="0px" y="0px"
	 width="5599.941px" height="270.963px" viewBox="0 0 5599.941 270.963" style="enable-background:new 0 0 5599.941 270.963;"
	 xml:space="preserve">
<style type="text/css">
	.st0{fill:#FFFFFF;stroke:#231F20;stroke-miterlimit:10;}
	.st1{fill:none;stroke:#231F20;stroke-miterlimit:10;}
</style>
<path class="st1" d="M0,0l223.421,17l285,111l123,48h171l135-60l105-10l127,20l148-22l195-7l161,37l91,14l113-10l141-31l379,37
	l132,26l233-24l239-36l308-10l363,39l349,33l450-12l341-74l302-19l67-2l182,26l69,14l99-23l68.52-38.379v227.342H0V0z"/>
</svg>
